<svg xmlns="http://www.w3.org/2000/svg" viewBox="0 0 256 256" width="256" height="256">
  <defs>
    <radialGradient id="base-a12" cx="0.5" cy="0.4" r="0.8">
      <stop offset="0" stop-color="#10240a"/><stop offset="1" stop-color="#050c03"/>
    </radialGradient>
    <filter id="blur-a12" x="-50%" y="-50%" width="200%" height="200%"><feGaussianBlur stdDeviation="22"/></filter>
    <radialGradient id="orb-a12" cx="0.35" cy="0.3" r="0.75">
      <stop offset="0" stop-color="#ffffff" stop-opacity="0.95"/>
      <stop offset="0.25" stop-color="#fef08a" stop-opacity="0.95"/>
      <stop offset="0.7" stop-color="#a3e635" stop-opacity="0.9"/>
      <stop offset="1" stop-color="#00e5ff" stop-opacity="0.85"/>
    </radialGradient>
    <linearGradient id="rim-a12" x1="0" y1="0" x2="1" y2="1">
      <stop offset="0" stop-color="#ffffff" stop-opacity="0.7"/><stop offset="1" stop-color="#ffffff" stop-opacity="0"/>
    </linearGradient>
  </defs>
  <rect width="256" height="256" fill="url(#base-a12)"/>
  <g filter="url(#blur-a12)" opacity="0.9">
    <circle cx="190" cy="70" r="70" fill="#fef08a"/>
    <circle cx="70" cy="190" r="62" fill="#a3e635"/>
    <circle cx="128" cy="128" r="54" fill="#00e5ff"/>
  </g>
  <path d="M128 56 L196 128 L128 200 L60 128 Z" fill="url(#orb-a12)"/>
  <path d="M128 56 L196 128 L128 200 L60 128 Z" fill="none" stroke="url(#rim-a12)" stroke-width="2"/>
  <path d="M128 56 L150 128 L128 200 M60 128 H196" stroke="#ffffff" stroke-opacity="0.18" stroke-width="2" fill="none"/>
  <path d="M190 58 L194 70 L206 74 L194 78 L190 90 L186 78 L174 74 L186 70 Z" fill="#ffffff" opacity="0.85"/>
  <circle cx="66" cy="196" r="3" fill="#ffffff" opacity="0.7"/><circle cx="206" cy="182" r="2" fill="#ffffff" opacity="0.6"/>
</svg>
